HIERARCHY
ROOT Hips
{
	OFFSET 0.000000 105.850000 0.000000
	CHANNELS 6 Xposition Yposition Zposition Yrotation Xrotation Zrotation
	JOINT RightUpLeg
	{
		OFFSET -11.500000 -1.850000 0.000000
		CHANNELS 3 Yrotation Xrotation Zrotation
		JOINT RightLeg
		{
			OFFSET 0.000000 -48.000000 0.000000
			CHANNELS 3 Yrotation Xrotation Zrotation
			JOINT RightFoot
			{
				OFFSET 0.000000 -48.000000 0.000000
				CHANNELS 3 Yrotation Xrotation Zrotation
				End Site
				{
					OFFSET 0.000000 -8.000000 19.600000
				}
			}
		}
	}
	JOINT LeftUpLeg
	{
		OFFSET 11.500000 -1.850000 0.000000
		CHANNELS 3 Yrotation Xrotation Zrotation
		JOINT LeftLeg
		{
			OFFSET 0.000000 -48.000000 0.000000
			CHANNELS 3 Yrotation Xrotation Zrotation
			JOINT LeftFoot
			{
				OFFSET 0.000000 -48.000000 0.000000
				CHANNELS 3 Yrotation Xrotation Zrotation
				End Site
				{
					OFFSET 0.000000 -8.000000 19.600000
				}
			}
		}
	}
	JOINT Spine
	{
		OFFSET 0.000000 16.654000 0.000000
		CHANNELS 3 Yrotation Xrotation Zrotation
		JOINT Spine1
		{
			OFFSET 0.000000 11.312000 0.000000
			CHANNELS 3 Yrotation Xrotation Zrotation
			JOINT Spine2
			{
				OFFSET 0.000000 11.780000 0.000000
				CHANNELS 3 Yrotation Xrotation Zrotation
				JOINT Spine3
				{
					OFFSET 0.000000 11.312000 0.000000
					CHANNELS 3 Yrotation Xrotation Zrotation
					JOINT Neck
					{
						OFFSET 0.000000 12.091000 0.000000
						CHANNELS 3 Yrotation Xrotation Zrotation
						JOINT Head
						{
							OFFSET 0.000000 9.000000 0.000000
							CHANNELS 3 Yrotation Xrotation Zrotation
							End Site
							{
								OFFSET 0.000000 18.000000 0.000000
							}
						}
					}
					JOINT RightShoulder
					{
						OFFSET -3.500000 8.061000 0.000000
						CHANNELS 3 Yrotation Xrotation Zrotation
						JOINT RightArm
						{
							OFFSET -14.000000 0.000000 0.000000
							CHANNELS 3 Yrotation Xrotation Zrotation
							JOINT RightForeArm
							{
								OFFSET -29.000000 0.000000 0.000000
								CHANNELS 3 Yrotation Xrotation Zrotation
								JOINT RightHand
								{
									OFFSET -28.000000 0.000000 0.000000
									CHANNELS 3 Yrotation Xrotation Zrotation
									End Site
									{
										OFFSET -3.672000 0.562000 0.822000
									}
								}
							}
						}
					}
					JOINT LeftShoulder
					{
						OFFSET 3.500000 8.061000 0.000000
						CHANNELS 3 Yrotation Xrotation Zrotation
						JOINT LeftArm
						{
							OFFSET 14.000000 0.000000 0.000000
							CHANNELS 3 Yrotation Xrotation Zrotation
							JOINT LeftForeArm
							{
								OFFSET 29.000000 0.000000 0.000000
								CHANNELS 3 Yrotation Xrotation Zrotation
								JOINT LeftHand
								{
									OFFSET 28.000000 0.000000 0.000000
									CHANNELS 3 Yrotation Xrotation Zrotation
									End Site
									{
										OFFSET 3.672000 0.562000 0.822000
									}
								}
							}
						}
					}
				}
			}
		}
	}
}
MOTION
Frames: 6
Frame Time: 0.041667
249.51178607894522 101.18159952239597 59.044874284634815 92.12046373765982 0.5320699744483084 -0.877344826786702 -5.910759867631201 2.7146289465586673 3.2442860014512407 0.005912458522372165 41.47104441275726 -0.002283974837479157 -5.658938552388796 -5.593332146901534 6.012267135817644 -9.398604587949038 -31.837537982784937 3.2809752164701496 -0.0005833708389954563 27.774304108121157 -0.0025481992212755297 5.529057979456756 -11.480921666672513 -3.906082095934959 5.157728692873964 4.699904280610773 1.5465571530459385 1.2977748211147628 1.2593397560377801 0.345385991295389 2.1907598851378354 2.1191671339930087 0.6036733561737956 0.5030693081394186 2.20844442537696 -0.1932661739379555 0.028188731530297564 20.15412309250019 -1.914783353629027 9.27454401833048 37.300911184335824 -1.0225875481442428 -1.9150581801798836 9.049385268479005 -7.311224143719274 -9.871223100411617 -5.544130173415388 64.71133364841525 41.52536597918702 3.413908437238682 27.13773250367195 0.9416196183227062 5.748541704404923 -11.472761664111648 -2.1312308815375323 9.994523553532229 -10.04196975862473 17.437033596721694 1.2548411585508952 -55.943741959762136 -50.56841341601057 1.2973456564278514 -8.173142728438691 7.775344523044838 30.246665276332124 0.35119572442605007
330.4650449828813 99.61076202322735 60.72055542774297 90.75248208827334 5.139090592265443 0.826443344725354 -7.446425213831525 -40.51257858292449 6.81899660609269 -0.0028605269120158005 40.719507171245674 -0.006739674450087706 -19.701299876295412 -15.416772745082694 6.881173799819871 0.7653910034948683 -3.6741726730625874 -0.6020657293681094 0.00027683062020951985 47.71611672069268 -0.0004590805809363825 -1.0437485237736956 -0.40654371424393343 9.746594344705992 -0.9434112845401994 7.821350144273348 2.9211441715278363 -0.2176442967704524 1.9458395014272625 0.7295388655025625 -0.2855501044278125 3.1937773575052133 1.2311413269545453 0.7891841465739856 1.2671083341690443 -0.48603891203229754 0.7906613382455465 1.3153222935682218 -0.5025414316335456 11.88602984853714 30.61575753170595 -6.6320837043497365 -8.821338390758683 9.017880149512848 -8.03168649517053 -14.909153706683915 0.324183779767664 68.46530238497658 31.268975060407584 23.49930586135377 25.08663220289519 -5.47992206852166 24.5068026135719 7.901322914797543 -13.516242725799401 6.041715087340633 -11.45731792335602 2.5382725239434305 0.6231722501005617 -42.75901439936451 -68.75003072800531 -14.171349221804443 -28.54462125985842 -5.0625659927030044 15.977896701680201 11.127907560002992
249.51440543112838 101.16593359951712 59.03845040246005 92.11737814101862 0.5355402825039283 -0.879108001618324 -5.910064723009925 2.712783446563316 3.2448459969976846 0.003106985014088282 41.47761515424741 0.004056791388020343 -5.658110479921154 -5.589577275627309 6.0142261338817 -9.402226306495242 -31.840012700680298 3.2830234337318775 -0.001286127202089731 27.77721977996618 0.005267934099084504 5.531845835384673 -11.477469325644984 -3.9099219695935834 5.157811869528729 4.705193069309462 1.5510284345269856 1.3037371602277181 1.256111792081631 0.3471191456008594 2.1793698368206287 2.118347587801157 0.5951578588199509 0.5175271557511587 2.220334246322678 -0.19550928990876099 0.02278077576275707 20.15684688176435 -1.9262366892613327 9.278958802988555 37.29901017190351 -1.0200407081552791 -1.90400603412625 9.055028151963242 -7.311781018702191 -9.861765390351323 -5.549017036547222 64.71464811658275 41.528092982497554 3.414610549245891 27.14441772313573 0.942129935143188 5.758693398075659 -11.476042876833333 -2.1243778586564246 9.995930476657598 -10.039493152921727 17.4270702232848 1.249994661163463 -55.95111494366343 -50.55742669721451 1.2887385621456617 -8.170471795481044 7.768332332811174 30.252642115983473 0.3532616437140585
330.46789495890545 99.61561726996857 60.72447840354429 90.7464708154162 5.139331210565801 0.8211767312545365 -7.438991858803492 -40.510326866863146 6.816160563438217 -0.00030762830333459535 40.71833478746191 0.008147215048812252 -19.68636685372806 -15.424249057504891 6.8802850536876505 0.7691009556137908 -3.674271690117889 -0.5981301876788357 0.002123967992396179 47.711131888317226 0.013748888344793982 -1.0263314186451666 -0.4020812315998638 9.757859790800437 -0.9452860471255097 7.824734847911358 2.921881530748648 -0.21403322678570658 1.9406349215200664 0.7331091649590873 -0.28002035480749876 3.2002803040982655 1.2306815883824849 0.792897741147168 1.270128810717858 -0.49272597879090807 0.788729035355338 1.3070107306760708 -0.4985118741146455 11.887497129497042 30.622589502998945 -6.634051523029955 -8.814251945963333 9.02873759898012 -8.038100530367844 -14.909182303472218 0.32981740531809123 68.47831813976102 31.286724529955066 23.500594981947852 25.096178142545728 -5.4761072855315325 24.496212808391316 7.903506981193395 -13.504528463240797 6.037465590770794 -11.449290358488556 2.5399784161812575 0.6275467359329925 -42.74695126844067 -68.75030900416907 -14.171855644254117 -28.55351242101032 -5.0632543087400155 15.974435522873275 11.123436672080622
249.515010471178 101.1763454458323 59.03539985076375 92.12217324082772 0.5385358925666098 -0.8739305653509363 -5.900577270268818 2.708502491531949 3.238484641428616 -0.0022370396741006496 41.467869119233896 0.003554296280095201 -5.637194814845026 -5.582662609443393 6.018319466599783 -9.404367775698603 -31.83524295397453 3.2840833340608033 0.004178543080974366 27.772488635989756 0.008459156981101052 5.539024089828992 -11.481720062409115 -3.9049797379943088 5.161508727221951 4.694336989324915 1.5501826428631258 1.291059657874226 1.2530534350582883 0.3499971515824281 2.192966516768915 2.119824119037038 0.6094127539589397 0.5101277965656675 2.2021813551516707 -0.18555823154930956 0.021899409413592686 20.15809142372577 -1.9200016328760174 9.269843171711738 37.29881448236886 -1.0247263865156981 -1.9155479434387421 9.050759638818862 -7.3087375023134635 -9.868977994392898 -5.551312958203989 64.70582670834514 41.529131999267314 3.4155731951311714 27.14518552261252 0.9315866355483045 5.767331266689799 -11.488606893496408 -2.128503030147979 9.999949015180055 -10.02785683910241 17.42986408834349 1.2446034793059957 -55.957029737331865 -50.56506273379679 1.2948850931465659 -8.171059868411696 7.77278953466206 30.24225000067625 0.3537122272006881
330.4771555780068 99.6209863035531 60.727634751255394 90.75101678036938 5.143902196024171 0.828211339468342 -7.439722165889353 -40.508979855866 6.8177481778997855 -0.0021674039820214815 40.725726484875786 -0.005376965648950301 -19.692597888929424 -15.419958542795252 6.880758908929505 0.7758336837150094 -3.681137074811946 -0.6054391683990639 0.00503139516405712 47.71323460928455 0.0046210715888803326 -1.0355074934199089 -0.39983377438303014 9.743618050104024 -0.9367543192681901 7.818394094827607 2.9215431186278393 -0.21833479838162467 1.9407306669074547 0.7396147391111946 -0.28594880758540403 3.1995126823922817 1.2183295643205592 0.7889059446524889 1.2736239343571678 -0.48738907652987934 0.7908349326160097 1.3156759324282885 -0.4902057599886715 11.881856867646533 30.614899546839023 -6.618508854058251 -8.814832573138863 9.031818902263083 -8.032658874939997 -14.915723447075884 0.3272703070565552 68.46859487487828 31.276871099209327 23.49520371201645 25.09868444676282 -5.476319289544274 24.503542637195608 7.909600927464655 -13.499793665404097 6.046293976110902 -11.449495208447116 2.540895911943731 0.6312035246535723 -42.7609804108305 -68.75226766535165 -14.177493740790242 -28.559696967908472 -5.057693897192246 15.977986230129385 11.116935027806715
